<svg width="252" height="44" xmlns="http://www.w3.org/2000/svg" xmlns:xlink="http://www.w3.org/1999/xlink" xml:space="preserve" overflow="hidden"><defs><clipPath id="clip0"><rect x="408" y="652" width="252" height="44"/></clipPath><clipPath id="clip1"><rect x="408" y="652" width="252" height="44"/></clipPath><clipPath id="clip2"><rect x="408" y="652" width="252" height="43"/></clipPath><clipPath id="clip3"><rect x="408" y="652" width="252" height="43"/></clipPath><clipPath id="clip4"><rect x="408" y="652" width="252" height="43"/></clipPath><clipPath id="clip5"><rect x="407" y="652" width="253" height="43"/></clipPath></defs><g clip-path="url(#clip0)" transform="translate(-408 -652)"><g clip-path="url(#clip1)"><g clip-path="url(#clip2)"><g clip-path="url(#clip3)"><g clip-path="url(#clip4)"><g clip-path="url(#clip5)"><path d="M47.3178 0.203071 42.0592 0.203071 42.0592 41.9551 47.3178 41.9551 47.3178 0.203071Z" fill="#F90D29" fill-rule="nonzero" fill-opacity="1" transform="matrix(1 0 0 1.0167 408 652)"/><path d="M94.5546 0.203071 89.2961 0.203071 89.2961 41.9551 94.5546 41.9551 94.5546 0.203071Z" fill="#F90D29" fill-rule="nonzero" fill-opacity="1" transform="matrix(1 0 0 1.0167 408 652)"/><path d="M36.2549 41.9559 30.6581 41.9559 18.1286 7.52676 5.59678 41.9559 0 41.9559 15.1967 0.204791 21.0586 0.204791 36.2549 41.9559Z" fill="#F90D29" fill-rule="nonzero" fill-opacity="1" transform="matrix(1 0 0 1.0167 408 652)"/><path d="M70.6122 41.864 54.5734 41.864 54.5734 36.6055 70.6122 36.6055C74.1945 36.6055 77.1093 33.6908 77.1093 30.1084 77.1093 26.5259 74.1945 23.6089 70.6122 23.6089L66.2238 23.6089C59.742 23.6089 54.4687 18.3356 54.4687 11.8533 54.4687 5.37097 59.7415 0.0980932 66.2238 0.0980932L82.3678 0.0980932 82.3678 5.3566 66.2238 5.3566C62.6414 5.3566 59.7267 8.27129 59.7267 11.8537 59.7267 15.4361 62.6414 18.3509 66.2238 18.3509L70.6122 18.3509C77.0939 18.3509 82.3673 23.6242 82.3673 30.1061 82.3673 36.5879 77.0939 41.864 70.6122 41.864Z" fill="#F90D29" fill-rule="nonzero" fill-opacity="1" transform="matrix(1 0 0 1.0167 408 652)"/><path d="M109.24 0.211675 108.151 0.211675 108.151 41.9437 109.24 41.9437 109.24 0.211675Z" fill="#101828" fill-rule="nonzero" fill-opacity="1" transform="matrix(1 0 0 1.0167 408 652)"/><path d="M127.6 17.3427 125.471 11.9044 118.618 11.9044 116.512 17.3427 114.501 17.3427 121.26 0.173815 122.933 0.173815 129.658 17.3432 127.6 17.3432 127.6 17.3427ZM124.851 10.1148 122.862 4.81648C122.606 4.14596 122.34 3.32345 122.068 2.34848 121.896 3.09685 121.651 3.91982 121.331 4.81648L119.319 10.1148 124.851 10.1148Z" fill="#101828" fill-rule="nonzero" fill-opacity="1" transform="matrix(1 0 0 1.0167 408 652)"/><path d="M132.129 17.3433 132.129 0.244373 134.118 0.244373 134.118 17.3433 132.129 17.3433Z" fill="#101828" fill-rule="nonzero" fill-opacity="1" transform="matrix(1 0 0 1.0167 408 652)"/><path d="M154.917 12.7938C154.917 14.2988 154.372 15.4721 153.28 16.3141 152.189 17.1561 150.707 17.5773 148.836 17.5773 146.809 17.5773 145.249 17.3159 144.157 16.7937L144.157 14.8758C144.859 15.1723 145.623 15.4058 146.45 15.5773 147.276 15.7488 148.095 15.8345 148.906 15.8345 150.231 15.8345 151.229 15.5829 151.9 15.0801 152.57 14.5773 152.906 13.8776 152.906 12.9805 152.906 12.3878 152.787 11.9027 152.549 11.5245 152.311 11.1464 151.914 10.7975 151.356 10.4777 150.799 10.158 149.951 9.79566 148.812 9.39017 147.222 8.82115 146.085 8.14645 145.403 7.36704 144.72 6.58762 144.38 5.57003 144.38 4.31426 144.38 2.99685 144.875 1.94774 145.865 1.16786 146.855 0.38845 148.165-0.00172093 149.796-0.00172093 151.425-0.00172093 153.058 0.310138 154.485 0.933854L153.865 2.6646C152.454 2.07193 151.082 1.77582 149.748 1.77582 148.696 1.77582 147.873 2.00196 147.281 2.45422 146.688 2.90649 146.392 3.53438 146.392 4.33742 146.392 4.9301 146.5 5.41526 146.72 5.79338 146.937 6.17151 147.305 6.51858 147.824 6.83415 148.343 7.14972 149.136 7.49911 150.204 7.88094 151.997 8.52041 153.232 9.20672 153.906 9.93929 154.58 10.6724 154.917 11.6237 154.917 12.7928L154.917 12.7938Z" fill="#101828" fill-rule="nonzero" fill-opacity="1" transform="matrix(1 0 0 1.0167 408 652)"/><path d="M168.066 17.3433 158.534 17.3433 158.534 0.244373 168.066 0.244373 168.066 2.01033 160.522 2.01033 160.522 7.51907 167.61 7.51907 167.61 9.27342 160.522 9.27342 160.522 15.5658 168.066 15.5658 168.066 17.3433Z" fill="#101828" fill-rule="nonzero" fill-opacity="1" transform="matrix(1 0 0 1.0167 408 652)"/><path d="M179.297 1.77708C177.418 1.77708 175.935 2.40265 174.847 3.65426 173.759 4.90587 173.215 6.61901 173.215 8.79461 173.215 10.9702 173.739 12.7617 174.788 13.9818 175.837 15.2023 177.332 15.8121 179.273 15.8121 180.466 15.8121 181.827 15.5976 183.356 15.1689L183.356 16.9118C182.17 17.3561 180.708 17.5786 178.969 17.5786 176.451 17.5786 174.507 16.8144 173.139 15.2862 171.771 13.758 171.087 11.5865 171.087 8.7719 171.087 7.0101 171.416 5.4661 172.075 4.14035 172.735 2.81507 173.685 1.79331 174.929 1.07598 176.173 0.358661 177.636 0 179.32 0 181.113 0 182.681 0.327614 184.022 0.982377L183.179 2.68996C181.886 2.082 180.591 1.77755 179.296 1.77755L179.297 1.77708Z" fill="#101828" fill-rule="nonzero" fill-opacity="1" transform="matrix(1 0 0 1.0167 408 652)"/><path d="M200.119 0.244373 200.119 11.3086C200.119 13.2581 199.529 14.79 198.352 15.905 197.175 17.0199 195.557 17.5774 193.498 17.5774 191.44 17.5774 189.848 17.0162 188.721 15.8929 187.594 14.7701 187.031 13.2261 187.031 11.2614L187.031 0.244373 189.019 0.244373 189.019 11.4022C189.019 12.829 189.409 13.9245 190.189 14.6886 190.968 15.4527 192.115 15.8345 193.628 15.8345 195.14 15.8345 196.181 15.4504 196.961 14.6825 197.74 13.9147 198.13 12.8132 198.13 11.3786L198.13 0.244373 200.119 0.244373Z" fill="#101828" fill-rule="nonzero" fill-opacity="1" transform="matrix(1 0 0 1.0167 408 652)"/><path d="M206.753 10.2327 206.753 17.3438 204.764 17.3438 204.764 0.244373 209.454 0.244373C211.551 0.244373 213.101 0.646129 214.103 1.44918 215.105 2.25223 215.606 3.46074 215.606 5.07471 215.606 7.33603 214.46 8.86432 212.168 9.65944L216.811 17.3433 214.46 17.3433 210.32 10.2322 206.753 10.2322 206.753 10.2327ZM206.753 8.52508 209.478 8.52508C210.882 8.52508 211.911 8.24658 212.566 7.68867 213.22 7.13121 213.548 6.29527 213.548 5.1799 213.548 4.06453 213.215 3.23461 212.548 2.73554 211.881 2.23647 210.811 1.98717 209.338 1.98717L206.753 1.98717 206.753 8.52508Z" fill="#101828" fill-rule="nonzero" fill-opacity="1" transform="matrix(1 0 0 1.0167 408 652)"/><path d="M219.691 17.3433 219.691 0.244373 221.679 0.244373 221.679 17.3433 219.691 17.3433Z" fill="#101828" fill-rule="nonzero" fill-opacity="1" transform="matrix(1 0 0 1.0167 408 652)"/><path d="M231.752 17.3433 229.763 17.3433 229.763 2.01033 224.349 2.01033 224.349 0.244373 237.167 0.244373 237.167 2.01033 231.752 2.01033 231.752 17.3433Z" fill="#101828" fill-rule="nonzero" fill-opacity="1" transform="matrix(1 0 0 1.0167 408 652)"/><path d="M244.977 8.79385 249.538 0.244373 251.69 0.244373 245.983 10.7118 245.983 17.3433 243.971 17.3433 243.971 10.8054 238.275 0.244373 240.45 0.244373 244.977 8.79385Z" fill="#101828" fill-rule="nonzero" fill-opacity="1" transform="matrix(1 0 0 1.0167 408 652)"/><path d="M116.851 42.0577 116.851 24.9587 118.84 24.9587 118.84 42.0577 116.851 42.0577Z" fill="#101828" fill-rule="nonzero" fill-opacity="1" transform="matrix(1 0 0 1.0167 408 652)"/><path d="M137.484 42.0577 135.217 42.0577 125.871 27.707 125.777 27.707C125.902 29.391 125.965 30.935 125.965 32.3386L125.965 42.0577 124.129 42.0577 124.129 24.9587 126.374 24.9587 135.695 39.2509 135.789 39.2509C135.773 39.0405 135.738 38.364 135.684 37.2218 135.629 36.0795 135.609 35.2626 135.625 34.7714L135.625 24.9587 137.484 24.9587 137.484 42.0577Z" fill="#101828" fill-rule="nonzero" fill-opacity="1" transform="matrix(1 0 0 1.0167 408 652)"/><path d="M152.434 37.5089C152.434 39.014 151.889 40.1873 150.797 41.0292 149.706 41.8712 148.224 42.2925 146.353 42.2925 144.326 42.2925 142.766 42.031 141.674 41.5089L141.674 39.5909C142.376 39.8875 143.14 40.121 143.967 40.2924 144.793 40.4639 145.612 40.5496 146.423 40.5496 147.748 40.5496 148.746 40.2981 149.417 39.7953 150.087 39.2924 150.423 38.5927 150.423 37.6961 150.423 37.1035 150.303 36.6182 150.066 36.2402 149.828 35.8621 149.43 35.5131 148.873 35.1934 148.315 34.8736 147.468 34.5112 146.329 34.1058 144.738 33.5368 143.602 32.862 142.92 32.0827 142.237 31.3032 141.896 30.2856 141.896 29.0299 141.896 27.7124 142.391 26.6634 143.382 25.8839 144.372 25.1045 145.682 24.7143 147.312 24.7143 148.942 24.7143 150.575 25.0262 152.002 25.6499L151.382 27.3807C149.97 26.788 148.598 26.4919 147.265 26.4919 146.212 26.4919 145.39 26.718 144.797 27.1703 144.205 27.6225 143.908 28.2504 143.908 29.0535 143.908 29.6462 144.017 30.1314 144.236 30.5094 144.454 30.8876 144.822 31.2347 145.341 31.5502 145.86 31.8658 146.653 32.2152 147.721 32.597 149.514 33.2365 150.748 33.9227 151.423 34.6554 152.097 35.3885 152.434 36.3393 152.434 37.5089Z" fill="#101828" fill-rule="nonzero" fill-opacity="1" transform="matrix(1 0 0 1.0167 408 652)"/><path d="M161.793 42.0577 159.805 42.0577 159.805 26.7247 154.39 26.7247 154.39 24.9587 167.208 24.9587 167.208 26.7247 161.793 26.7247 161.793 42.0577Z" fill="#101828" fill-rule="nonzero" fill-opacity="1" transform="matrix(1 0 0 1.0167 408 652)"/><path d="M170.38 42.0577 170.38 24.9587 172.369 24.9587 172.369 42.0577 170.38 42.0577Z" fill="#101828" fill-rule="nonzero" fill-opacity="1" transform="matrix(1 0 0 1.0167 408 652)"/><path d="M182.92 42.0577 180.932 42.0577 180.932 26.7247 175.517 26.7247 175.517 24.9587 188.336 24.9587 188.336 26.7247 182.92 26.7247 182.92 42.0577Z" fill="#101828" fill-rule="nonzero" fill-opacity="1" transform="matrix(1 0 0 1.0167 408 652)"/><path d="M204.42 24.9587 204.42 36.023C204.42 37.9724 203.83 39.5044 202.654 40.6193 201.476 41.7342 199.858 42.2917 197.8 42.2917 195.741 42.2917 194.148 41.7301 193.022 40.6078 191.895 39.485 191.332 37.941 191.332 35.9762L191.332 24.9587 193.32 24.9587 193.32 36.1166C193.32 37.5433 193.71 38.6393 194.49 39.4029 195.269 40.167 196.415 40.5489 197.928 40.5489 199.441 40.5489 200.482 40.1647 201.262 39.3969 202.041 38.629 202.431 37.5276 202.431 36.093L202.431 24.9587 204.42 24.9587Z" fill="#101828" fill-rule="nonzero" fill-opacity="1" transform="matrix(1 0 0 1.0167 408 652)"/><path d="M214.808 42.0577 212.819 42.0577 212.819 26.7247 207.404 26.7247 207.404 24.9587 220.223 24.9587 220.223 26.7247 214.808 26.7247 214.808 42.0577Z" fill="#101828" fill-rule="nonzero" fill-opacity="1" transform="matrix(1 0 0 1.0167 408 652)"/><path d="M232.926 42.0577 223.394 42.0577 223.394 24.9587 232.926 24.9587 232.926 26.7247 225.383 26.7247 225.383 32.2334 232.47 32.2334 232.47 33.9878 225.383 33.9878 225.383 40.2801 232.926 40.2801 232.926 42.0577Z" fill="#101828" fill-rule="nonzero" fill-opacity="1" transform="matrix(1 0 0 1.0167 408 652)"/></g></g></g></g></g></g></svg>